<svg width="191" height="161" viewBox="0 0 191 161" fill="none" xmlns="http://www.w3.org/2000/svg">
<ellipse cx="8.24682" cy="7.74468" rx="7.47924" ry="7.74468" fill="#DDDDEE"/>
<ellipse cx="43.1501" cy="7.74468" rx="7.47924" ry="7.74468" fill="#DDDDEE"/>
<ellipse cx="78.0525" cy="7.74468" rx="7.47924" ry="7.74468" fill="#DDDDEE"/>
<ellipse cx="112.956" cy="7.74468" rx="7.47924" ry="7.74468" fill="#DDDDEE"/>
<ellipse cx="147.859" cy="7.74468" rx="7.47924" ry="7.74468" fill="#DDDDEE"/>
<ellipse cx="182.762" cy="7.74468" rx="7.47924" ry="7.74468" fill="#DDDDEE"/>
<ellipse cx="8.24682" cy="43.8868" rx="7.47924" ry="7.74468" fill="#DDDDEE"/>
<ellipse cx="43.1501" cy="43.8868" rx="7.47924" ry="7.74468" fill="#DDDDEE"/>
<ellipse cx="78.0525" cy="43.8868" rx="7.47924" ry="7.74468" fill="#DDDDEE"/>
<ellipse cx="112.956" cy="43.8868" rx="7.47924" ry="7.74468" fill="#DDDDEE"/>
<ellipse cx="147.859" cy="43.8868" rx="7.47924" ry="7.74468" fill="#DDDDEE"/>
<ellipse cx="182.762" cy="43.8868" rx="7.47924" ry="7.74468" fill="#DDDDEE"/>
<ellipse cx="8.24682" cy="80.0284" rx="7.47924" ry="7.74468" fill="#DDDDEE"/>
<ellipse cx="43.1501" cy="80.0284" rx="7.47924" ry="7.74468" fill="#DDDDEE"/>
<ellipse cx="78.0525" cy="80.0284" rx="7.47924" ry="7.74468" fill="#DDDDEE"/>
<ellipse cx="112.956" cy="80.0284" rx="7.47924" ry="7.74468" fill="#DDDDEE"/>
<ellipse cx="147.859" cy="80.0284" rx="7.47924" ry="7.74468" fill="#DDDDEE"/>
<ellipse cx="182.762" cy="80.0284" rx="7.47924" ry="7.74468" fill="#DDDDEE"/>
<ellipse cx="8.24682" cy="116.17" rx="7.47924" ry="7.74468" fill="#DDDDEE"/>
<ellipse cx="43.1501" cy="116.17" rx="7.47924" ry="7.74468" fill="#DDDDEE"/>
<ellipse cx="78.0525" cy="116.17" rx="7.47924" ry="7.74468" fill="#DDDDEE"/>
<ellipse cx="112.956" cy="116.17" rx="7.47924" ry="7.74468" fill="#DDDDEE"/>
<ellipse cx="147.859" cy="116.17" rx="7.47924" ry="7.74468" fill="#DDDDEE"/>
<ellipse cx="182.762" cy="116.17" rx="7.47924" ry="7.74468" fill="#DDDDEE"/>
<ellipse cx="8.24682" cy="152.312" rx="7.47924" ry="7.74468" fill="#DDDDEE"/>
<ellipse cx="43.1501" cy="152.312" rx="7.47924" ry="7.74468" fill="#DDDDEE"/>
<ellipse cx="78.0525" cy="152.312" rx="7.47924" ry="7.74468" fill="#DDDDEE"/>
<ellipse cx="112.956" cy="152.312" rx="7.47924" ry="7.74468" fill="#DDDDEE"/>
<ellipse cx="147.859" cy="152.312" rx="7.47924" ry="7.74468" fill="#DDDDEE"/>
<ellipse cx="182.762" cy="152.312" rx="7.47924" ry="7.74468" fill="#DDDDEE"/>
</svg>
